<svg width="200" height="200" viewBox="0 0 200 200" fill="none" xmlns="http://www.w3.org/2000/svg">
<g clip-path="url(#clip0_52_209)">
<path d="M137.2 92.8571H94.3426M115.771 71.4285V114.286M7.14258 7.14282H42.8569L46.614 42.8571M46.614 42.8571L55.7997 130.071C56.1702 133.58 57.8257 136.827 60.4475 139.188C63.0692 141.548 66.4718 142.855 69.9997 142.857H160.285C163.47 142.857 166.563 141.793 169.074 139.833C171.585 137.874 173.369 135.132 174.143 132.043L192 60.6143C192.527 58.5078 192.568 56.3088 192.118 54.1844C191.669 52.06 190.74 50.066 189.404 48.3541C188.069 46.6421 186.36 45.2573 184.408 44.3048C182.457 43.3523 180.314 42.8572 178.143 42.8571H46.614ZM156.371 192.857C154.477 192.857 152.66 192.105 151.32 190.765C149.981 189.425 149.228 187.609 149.228 185.714C149.228 183.82 149.981 182.003 151.32 180.663C152.66 179.324 154.477 178.571 156.371 178.571C158.266 178.571 160.082 179.324 161.422 180.663C162.761 182.003 163.514 183.82 163.514 185.714C163.514 187.609 162.761 189.425 161.422 190.765C160.082 192.105 158.266 192.857 156.371 192.857ZM63.514 192.857C61.6196 192.857 59.8028 192.105 58.4632 190.765C57.1237 189.425 56.3712 187.609 56.3712 185.714C56.3712 183.82 57.1237 182.003 58.4632 180.663C59.8028 179.324 61.6196 178.571 63.514 178.571C65.4084 178.571 67.2252 179.324 68.5648 180.663C69.9043 182.003 70.6569 183.82 70.6569 185.714C70.6569 187.609 69.9043 189.425 68.5648 190.765C67.2252 192.105 65.4084 192.857 63.514 192.857Z" stroke="#00A082" stroke-width="14.2857" stroke-linecap="round" stroke-linejoin="round"/>
</g>
<defs>
<clipPath id="clip0_52_209">
<rect width="200" height="200" fill="white"/>
</clipPath>
</defs>
</svg>
