<svg width="200" height="200" viewBox="0 0 200 200" fill="none" xmlns="http://www.w3.org/2000/svg">
<g clip-path="url(#clip0_57_10)">
<path d="M99.9997 164.286V192.857M135.714 150V178.571M64.2854 150V178.571M178.571 7.14282H21.4283C17.6395 7.14282 14.0059 8.64792 11.3268 11.327C8.64768 14.0061 7.14258 17.6397 7.14258 21.4285V107.143C7.14258 110.932 8.64768 114.565 11.3268 117.244C14.0059 119.923 17.6395 121.429 21.4283 121.429H178.571C182.36 121.429 185.994 119.923 188.673 117.244C191.352 114.565 192.857 110.932 192.857 107.143V21.4285C192.857 17.6397 191.352 14.0061 188.673 11.327C185.994 8.64792 182.36 7.14282 178.571 7.14282Z" stroke="#00A082" stroke-width="14.2857" stroke-linecap="round" stroke-linejoin="round"/>
<path d="M99.9999 89.2856C103.283 89.2856 106.534 88.639 109.567 87.3826C112.6 86.1263 115.356 84.2848 117.678 81.9633C119.999 79.6418 121.84 76.8859 123.097 73.8527C124.353 70.8196 125 67.5687 125 64.2856C125 61.0026 124.353 57.7517 123.097 54.7186C121.84 51.6854 119.999 48.9294 117.678 46.608C115.356 44.2865 112.6 42.445 109.567 41.1887C106.534 39.9323 103.283 39.2856 99.9999 39.2856C93.3694 39.2856 87.0106 41.9196 82.3222 46.608C77.6338 51.2964 74.9999 57.6552 74.9999 64.2856C74.9999 70.9161 77.6338 77.2749 82.3222 81.9633C87.0106 86.6517 93.3694 89.2856 99.9999 89.2856ZM39.6427 67.8571C38.6955 67.8571 37.7871 67.4808 37.1173 66.811C36.4476 66.1413 36.0713 65.2328 36.0713 64.2856C36.0713 63.3384 36.4476 62.43 37.1173 61.7603C37.7871 61.0905 38.6955 60.7142 39.6427 60.7142M39.6427 67.8571C40.5899 67.8571 41.4983 67.4808 42.1681 66.811C42.8379 66.1413 43.2141 65.2328 43.2141 64.2856C43.2141 63.3384 42.8379 62.43 42.1681 61.7603C41.4983 61.0905 40.5899 60.7142 39.6427 60.7142M160.357 67.8571C159.41 67.8571 158.501 67.4808 157.832 66.811C157.162 66.1413 156.786 65.2328 156.786 64.2856C156.786 63.3384 157.162 62.43 157.832 61.7603C158.501 61.0905 159.41 60.7142 160.357 60.7142M160.357 67.8571C161.304 67.8571 162.213 67.4808 162.882 66.811C163.552 66.1413 163.928 65.2328 163.928 64.2856C163.928 63.3384 163.552 62.43 162.882 61.7603C162.213 61.0905 161.304 60.7142 160.357 60.7142" stroke="#00A082" stroke-width="14.2857" stroke-linecap="round" stroke-linejoin="round"/>
</g>
<defs>
<clipPath id="clip0_57_10">
<rect width="200" height="200" fill="white"/>
</clipPath>
</defs>
</svg>
