<svg width="200" height="200" viewBox="0 0 200 200" fill="none" xmlns="http://www.w3.org/2000/svg">
<g clip-path="url(#clip0_60_10)">
<path d="M0 104.167H120.533M179.467 104.167H200M33.3333 137.5H25C22.7899 137.5 20.6702 138.378 19.1074 139.941C17.5446 141.504 16.6667 143.623 16.6667 145.833V148.958C16.6667 150.761 17.2515 152.516 18.3333 153.958C19.4152 155.401 20.9357 156.453 22.6667 156.958L44 163.183C45.731 163.688 47.2515 164.741 48.3333 166.183C49.4152 167.626 50 169.38 50 171.183V179.167C50 181.377 49.122 183.496 47.5592 185.059C45.9964 186.622 43.8768 187.5 41.6667 187.5H33.3333M33.3333 137.5H41.6667C43.8768 137.5 45.9964 138.378 47.5592 139.941C49.122 141.504 50 143.623 50 145.833V150M33.3333 137.5V125M33.3333 187.5H25C22.7899 187.5 20.6702 186.622 19.1074 185.059C17.5446 183.496 16.6667 181.377 16.6667 179.167V175M33.3333 187.5V200M83.3333 83.3333V62.5C83.3333 62.5 70.8333 54.1667 50 54.1667C29.1667 54.1667 16.6667 62.5 16.6667 62.5V83.3333M133.333 200V154.167H104.167V152.083L104.767 150.833C118.091 122.849 125.004 92.2445 125 61.25V58.5167C133.007 55.5848 141.473 54.1088 150 54.1583C160.733 54.1583 169.258 56.375 175 58.5167V61.25C175 92.25 181.917 122.842 195.233 150.825L195.833 152.075V154.158H166.667V200M48.75 37.5C48.75 37.5 35.4167 29.1667 35.4167 18.75C35.4167 14.8867 36.9514 11.1816 39.6831 8.44983C42.4149 5.71805 46.12 4.18335 49.9833 4.18335C53.8467 4.18335 57.5517 5.71805 60.2835 8.44983C63.0153 11.1816 64.55 14.8867 64.55 18.75C64.55 29.1667 51.25 37.5 51.25 37.5H48.75ZM148.75 37.5C148.75 37.5 135.417 29.1667 135.417 18.75C135.417 14.8867 136.951 11.1816 139.683 8.44983C142.415 5.71805 146.12 4.18335 149.983 4.18335C153.847 4.18335 157.552 5.71805 160.284 8.44983C163.015 11.1816 164.55 14.8867 164.55 18.75C164.55 29.1667 151.25 37.5 151.25 37.5H148.75Z" stroke="#00A082" stroke-width="8.33333"/>
</g>
<defs>
<clipPath id="clip0_60_10">
<rect width="200" height="200" fill="white"/>
</clipPath>
</defs>
</svg>
