<svg width="200" height="200" viewBox="0 0 200 200" fill="none" xmlns="http://www.w3.org/2000/svg">
<path d="M33.3332 100C33.3332 82.0501 40.4248 65.7584 51.9582 53.7751C52.9748 54.7001 53.8498 55.8751 54.5082 57.3584C56.2082 61.1667 56.2082 65.0917 56.2082 68.5667C56.2082 71.3001 56.2082 73.9001 57.0832 75.7751C58.2832 78.3417 63.4665 79.4417 68.0415 80.3917L68.2082 80.4334C69.7915 80.7667 71.4165 81.1001 72.8998 81.5167C77.1165 82.6834 80.3832 86.4751 82.9915 89.5167C84.0748 90.7751 85.6832 92.6334 86.4915 93.1001C86.9082 92.8001 88.2498 91.3417 88.9082 88.9501C89.4248 87.1167 89.2748 85.5001 88.5332 84.6167C83.8665 79.1167 84.1248 68.5334 85.5665 64.6251C87.8332 58.4667 94.9165 58.9251 100.1 59.2584H100.15C102.066 59.3834 103.867 59.5084 105.217 59.3334C109.142 58.8334 111.008 54.2001 112.175 51.3001C112.55 50.3751 112.85 49.6251 113.125 49.2501C115.333 46.2251 121.658 41.8167 126.267 38.7084C134.854 42.401 142.572 47.853 148.922 54.7126C155.272 61.5723 160.113 69.6871 163.133 78.5334C170.173 80.9273 176.762 84.485 182.625 89.0584C177.267 48.2084 142.316 16.6667 99.9998 16.6667C53.9748 16.6667 16.6665 53.9751 16.6665 100C16.6665 142.317 48.2082 177.267 89.0582 182.625C84.4853 176.762 80.9277 170.173 78.5332 163.133C65.3511 158.646 53.9043 150.145 45.7982 138.823C37.6921 127.501 33.3333 113.925 33.3332 100ZM141.666 108.333C132.826 108.333 124.347 111.845 118.096 118.097C111.845 124.348 108.333 132.826 108.333 141.667C108.333 150.507 111.845 158.986 118.096 165.237C124.347 171.488 132.826 175 141.666 175C150.507 175 158.986 171.488 165.237 165.237C171.488 158.986 175 150.507 175 141.667C175 132.826 171.488 124.348 165.237 118.097C158.986 111.845 150.507 108.333 141.666 108.333ZM91.6665 141.667C91.6665 135.101 92.9598 128.599 95.4725 122.533C97.9853 116.466 101.668 110.954 106.311 106.311C110.954 101.668 116.466 97.9855 122.532 95.4728C128.599 92.96 135.1 91.6667 141.666 91.6667C148.233 91.6667 154.734 92.96 160.801 95.4728C166.867 97.9855 172.379 101.668 177.022 106.311C181.665 110.954 185.348 116.466 187.86 122.533C190.373 128.599 191.667 135.101 191.667 141.667C191.667 154.928 186.399 167.645 177.022 177.022C167.645 186.399 154.927 191.667 141.666 191.667C128.406 191.667 115.688 186.399 106.311 177.022C96.9343 167.645 91.6665 154.928 91.6665 141.667ZM133.333 116.667V150H166.667V133.333H150V116.667H133.333Z" fill="#00A082"/>
</svg>
