<svg width="200" height="200" viewBox="0 0 200 200" fill="none" xmlns="http://www.w3.org/2000/svg">
<g clip-path="url(#clip0_52_199)">
<path d="M179.167 75.0001V158.333M45.8333 75.0001V158.333M20.8333 75.0001V158.333M154.167 75.0001V158.333M16.6667 175H183.333M0 195.833H200M100 91.6667H91.6667C89.4565 91.6667 87.3369 92.5447 85.7741 94.1075C84.2113 95.6703 83.3333 97.7899 83.3333 100V103.125C83.3333 104.928 83.9181 106.683 85 108.125C86.0818 109.568 87.6024 110.62 89.3333 111.125L110.667 117.35C112.398 117.855 113.918 118.908 115 120.35C116.082 121.793 116.667 123.547 116.667 125.35V133.333C116.667 135.544 115.789 137.663 114.226 139.226C112.663 140.789 110.543 141.667 108.333 141.667H100M100 91.6667H108.333C110.543 91.6667 112.663 92.5447 114.226 94.1075C115.789 95.6703 116.667 97.7899 116.667 100V104.167M100 91.6667V75.0001M100 141.667H91.6667C89.4565 141.667 87.3369 140.789 85.7741 139.226C84.2113 137.663 83.3333 135.544 83.3333 133.333V129.167M100 141.667V158.333M195.833 52.0834V58.3334H4.16667V52.0834C45.8333 37.5001 70.8333 25.0001 97.9167 4.16675H102.083C129.167 25.0001 154.167 37.5001 195.833 52.0834Z" stroke="#00A082" stroke-width="8.33333"/>
</g>
<defs>
<clipPath id="clip0_52_199">
<rect width="200" height="200" fill="white"/>
</clipPath>
</defs>
</svg>
