<svg width="48" height="45" viewBox="0 0 48 45" fill="none" xmlns="http://www.w3.org/2000/svg">
<g clip-path="url(#clip0_98_126)">
<path d="M23.9791 4.00936C25.9008 4.01217 27.7786 4.55608 29.375 5.57229C30.9714 6.58851 32.2148 8.03139 32.9478 9.71848C33.6808 11.4056 33.8706 13.2611 33.4932 15.0504C33.1157 16.8397 32.188 18.4825 30.8273 19.7709C29.4666 21.0593 27.7341 21.9356 25.8488 22.2888C23.9635 22.6421 22.0101 22.4565 20.2357 21.7555C18.4612 21.0546 16.9454 19.8697 15.8799 18.3507C14.8144 16.8318 14.247 15.047 14.2496 13.2221L14.2599 12.8217C14.3719 10.4463 15.4453 8.20396 17.256 6.56214C19.0668 4.92032 21.4752 4.00582 23.9791 4.00936Z" fill="white"/>
<path d="M27.8342 26.1594C30.4112 26.1632 32.8812 27.1389 34.7009 28.872C36.5207 30.6051 37.541 32.9535 37.5376 35.4006L37.535 37.246C37.5336 38.2249 37.1228 39.1631 36.3929 39.8542C35.6631 40.5453 34.6739 40.9327 33.6432 40.9311L14.2104 40.9027C13.1796 40.9012 12.1916 40.5109 11.4637 39.8176C10.7358 39.1244 10.3277 38.185 10.329 37.2062L10.3317 35.3608C10.3351 32.9136 11.3621 30.5682 13.1868 28.8405C15.0114 27.1128 17.4842 26.1443 20.0611 26.148L27.8342 26.1594Z" fill="white"/>
</g>
<defs>
<clipPath id="clip0_98_126">
<rect width="46.6387" height="44.2896" fill="white" transform="matrix(0.999999 0.00146539 -0.00141591 0.999999 0.665039 0.28418)"/>
</clipPath>
</defs>
</svg>
