<svg width="200" height="200" viewBox="0 0 200 200" fill="none" xmlns="http://www.w3.org/2000/svg">
<path d="M43.4218 122.969H35.5468C30.0655 123.687 40.8124 129.094 40.8124 129.094C40.8124 129.094 46.078 125.222 46.078 124.05C46.0749 122.878 43.4218 122.969 43.4218 122.969ZM83.6436 159.872C82.1874 160.712 80.7374 162.606 80.4249 164.078L79.8311 166.872C79.5186 168.347 79.8593 170.084 80.5843 170.734C81.3093 171.387 82.2874 170.734 82.753 169.294L85.4405 160.978C85.9124 159.528 85.0999 159.028 83.6436 159.872ZM121.509 156.697C120.056 157.544 118.603 159.431 118.294 160.909L117.697 163.697C117.384 165.172 117.728 166.909 118.453 167.566C119.178 168.216 120.156 167.569 120.625 166.119L123.309 157.809C123.772 156.353 122.962 155.856 121.509 156.697Z" fill="#00A082"/>
<path d="M164.453 136.119C160.273 136.11 156.14 136.992 152.328 138.707C148.516 140.422 145.113 142.929 142.347 146.062L140.328 145.169C140.975 144.578 141.672 143.966 142.481 143.325C143.763 142.319 144.25 141.175 144.275 140.041L183.106 121.656C183.21 119.214 182.553 116.799 181.225 114.747C186.628 107.959 186.719 99.8656 186.719 99.4219V94.8125H182.031C175.062 94.8125 169.603 94.9625 162.828 96.9156C158.197 98.2531 154.9 99.6906 152.459 101.247C153.15 98.0781 152.716 94.4031 150.006 90.4906C150.006 90.4906 132.166 71.8781 111.653 66.1188C117.794 61.2375 119.819 55.8469 119.819 44.6031C119.819 23.4531 102.328 6.25 80.8281 6.25C59.3312 6.25 41.8406 23.4531 41.8406 44.6C41.8406 46.1313 41.9406 47.4906 42.1125 48.7313L42.0594 48.75C38.3156 50.0875 45.2781 69.2938 49.2719 69.4875C54.9969 82.9125 63.5219 85.9563 70.0469 85.9563C73.3875 85.9563 76.9375 85.075 80.4187 83.4813L81.4875 96.1094L75.1344 99.4781L74.8406 99.2156L70.425 95.2531L69.0813 94.0437H67.2656C53.0812 94.0437 39.7844 100.881 31.6938 112.328L31.0531 113.228C27.2469 118.563 24.8031 122.338 25.4875 126.041C25.7906 127.669 26.7094 129.072 28.0812 129.988C29.3344 130.831 31.1125 132.006 33.1375 133.344C26.5374 133.809 20.2387 136.287 15.0906 140.444L19.4219 140.887C11.4875 146.038 6.25 154.884 6.25 164.934C6.25 180.853 19.3656 193.75 35.5469 193.75C48.2938 193.75 59.1063 185.734 63.1375 174.553L63.1437 174.831C63.1329 175.96 63.3469 177.079 63.7731 178.124C64.1993 179.169 64.8292 180.119 65.6262 180.918C66.4232 181.717 67.3712 182.349 68.4151 182.778C69.459 183.207 70.5777 183.424 71.7062 183.416C71.9781 183.416 72.2562 183.406 72.5406 183.378L72.6594 183.372L72.7781 183.353L130.172 175.525L134.634 174.919L134.194 170.512C134.15 170.091 134.144 169.669 134.131 169.244C134.119 168.543 134.08 167.842 134.016 167.144C133.822 165.135 133.759 163.117 133.825 161.1L135.344 161.728C135.222 162.792 135.158 163.861 135.153 164.931C135.153 180.85 148.269 193.747 164.45 193.747C180.631 193.747 193.75 180.853 193.75 164.934C193.75 149.016 180.634 136.119 164.453 136.119ZM140.216 121.156C154.566 114.009 143.944 107.166 164.147 101.338C170.353 99.55 175.334 99.4219 182.031 99.4219C182.031 99.4219 182.031 111.128 171.984 116.531C151.556 127.519 135.156 128.513 135.156 128.513C135.156 128.513 134.972 123.766 140.216 121.156ZM119.378 138.631C121.211 140.188 122.508 142.281 123.084 144.616C119.203 145.256 117.287 147.869 116.084 149.516C116.047 149.572 116.022 149.594 115.988 149.644L119.378 138.631ZM79.3187 77.1844C76.1562 78.8969 72.9531 79.8063 70.0437 79.8063C62.6187 79.8063 57.9969 73.8688 55.1469 67.35C66.7437 62.4656 80.9406 54.5062 86.5594 48.6656C87.1171 48.8338 87.6956 48.9232 88.2781 48.9313C91.7219 48.9313 94.5094 46.1844 94.5094 42.8031C94.5094 39.4187 91.7188 36.675 88.2781 36.675C85.3781 36.675 82.9656 38.6281 82.2688 41.2687C73.9031 40.85 59.4281 43.4938 48.1844 46.7812C48.1199 46.057 48.0876 45.3302 48.0875 44.6031C48.0875 26.8469 62.775 12.4 80.825 12.4C98.8781 12.4 113.566 26.8469 113.566 44.6031C113.566 59.2344 111.075 60.5312 91.6937 70.6344C87.5497 72.7815 83.4245 74.9649 79.3187 77.1844ZM76.1656 116.05C76.4469 115.356 76.5906 114.681 76.6437 113.997L95.6125 105.466C96.6265 104.928 97.4344 104.07 97.9108 103.026C98.3872 101.981 98.5053 100.809 98.2469 99.6906H98.2781L97.825 94.375L110.753 105.672C110.35 105.616 109.953 105.531 109.544 105.531C108.756 105.531 107.988 105.634 107.263 105.844C104.094 106.747 99.5188 108.513 95.0906 110.219C92.6406 111.166 90.325 112.056 88.6094 112.659C84.8625 113.966 82.4313 116.963 82.4313 120.284V120.872C79.5725 120.223 76.7011 119.631 73.8187 119.097C74.8906 118.256 75.6531 117.3 76.1656 116.05ZM106.231 111.009L102.981 123.766L97.45 125.066C94.0455 123.914 90.5982 122.894 87.1156 122.006V120.281C87.1156 118.825 88.5563 117.562 90.1813 116.994C94.2719 115.562 101.319 112.669 106.231 111.009ZM61.4906 102.875L63.8125 101.903C64.2562 101.713 64.7125 101.628 65.1656 101.628C66.4563 101.628 67.675 102.347 68.2125 103.562L70.2156 108.166C73.1937 114.987 73.1937 114.987 64.0437 118.819C62.7906 119.347 61.7 119.559 60.7531 119.559C57.0219 119.559 55.5625 116.216 55.25 115.494C52.8406 109.994 56.4219 107.225 59.4219 105.719C59.4969 104.522 60.2594 103.387 61.4906 102.875ZM50.1969 164.934C50.1969 165.597 50.0875 166.228 50 166.869L55.9781 166.475C55.7869 168.967 55.1241 171.399 54.025 173.644L49.0938 170.397C48.5779 171.59 47.9019 172.708 47.0844 173.719L52.4688 176.325C51.0257 178.391 49.2141 180.172 47.125 181.581L44.4781 176.284C43.4903 177.064 42.4052 177.713 41.25 178.212L44.5969 183.016C42.2522 184.152 39.714 184.836 37.1156 185.031L37.5156 179.15C36.8656 179.238 36.2219 179.344 35.55 179.344C34.9281 179.344 34.3375 179.241 33.7344 179.166L34.1938 185.041C31.5935 184.875 29.0479 184.22 26.6906 183.109L29.9937 178.256C28.7839 177.754 27.6475 177.091 26.6156 176.284L23.9688 181.581C21.8803 180.172 20.0689 178.39 18.625 176.325L24.0094 173.722C23.1925 172.711 22.5165 171.593 22 170.4L17.0687 173.647C15.9696 171.403 15.3068 168.97 15.1156 166.478L21.0938 166.872C21.0063 166.231 20.8969 165.6 20.8969 164.938C20.8969 164.322 21.0062 163.741 21.0812 163.15L15.1063 163.603C15.2746 161.042 15.9412 158.537 17.0687 156.231L22 159.478C22.4844 158.319 23.1469 157.259 23.9062 156.275L18.5 153.719C19.9613 151.579 21.8162 149.737 23.9656 148.291L26.6156 153.587C27.6466 152.778 28.7831 152.112 29.9937 151.609L26.6906 146.756C28.9818 145.673 31.4535 145.022 33.9812 144.837L33.5813 150.719C34.2313 150.634 34.875 150.522 35.5469 150.522C36.2188 150.522 36.8625 150.631 37.5125 150.719L37.1156 144.837C39.105 144.988 41.0618 145.427 42.925 146.141L37.7406 156.591C37.026 156.398 36.2901 156.295 35.55 156.284C30.6938 156.284 26.7594 160.153 26.7594 164.934C26.7594 169.716 30.6938 173.578 35.55 173.578C40.4031 173.578 44.3406 169.716 44.3406 164.934C44.3406 162.434 43.25 160.203 41.5312 158.625L48.2344 149.197C49.8406 150.45 51.3094 151.869 52.475 153.544L47.0906 156.15C47.8625 157.128 48.5531 158.166 49.05 159.322L53.9344 156.028C55.0625 158.281 55.7781 160.759 55.9812 163.387L50.0031 162.997C50.0844 163.637 50.1969 164.269 50.1969 164.934ZM129.353 167.634C129.475 168.75 129.419 169.869 129.531 170.959L72.1313 178.791C71.9899 178.803 71.8481 178.809 71.7062 178.809C69.2062 178.809 67.8312 176.831 67.8312 174.762C67.8312 174.762 67.525 155.019 64.8438 150.166C63.4719 147.681 56.1781 142.909 56.0656 142.834C56.0656 142.834 37.0188 130.4 30.7219 126.175C28.3938 124.616 32.8125 118.819 35.5437 114.959C40.8834 107.427 48.7466 102.058 57.7062 99.8281C56.7375 100.603 55.9469 101.556 55.4406 102.666C51.8875 104.944 50.4094 107.641 49.9531 110.172C49.0438 110.991 48.1406 111.875 47.2656 112.881C46.0406 114.281 41.9562 120.266 47.2656 120.266C48.3031 120.266 50.3469 120.403 53.0812 120.681C54.0291 121.786 55.2067 122.671 56.5317 123.274C57.8568 123.877 59.2974 124.183 60.7531 124.172C62.4 124.172 64.1281 123.794 65.8875 123.056L67.0219 122.581C77.0625 124.222 88.9875 126.775 98.5344 130.35C99.4625 130.697 100.297 131.034 101.053 131.362L96.1906 150.466L93.9875 149.922C92.4834 149.549 90.9187 149.489 89.3906 149.747C89.6719 149.409 89.4938 148.9 88.6937 148.306L68.6375 133.472C67.2594 132.453 66.1281 132.756 66.1281 134.15C66.1281 135.544 67.25 137.519 68.6188 138.55L81.5687 148.284C82.9406 149.316 85.4719 150.159 87.1937 150.159H87.6813C84.3063 151.275 81.5938 153.956 80.7063 157.55L106.216 163.853C109.175 164.581 112.147 162.878 112.85 160.028L113.809 156.191C120.578 155.369 119.309 149.078 124.906 149.078C127.066 149.078 128.966 149.4 130.625 149.841C129.291 154.278 128.753 161.994 129.353 167.634ZM127.319 139.416L125.281 138.519L136.688 132.994C139.824 132.635 142.936 132.088 146.006 131.356L141.312 134.284C140.691 133.631 140.212 133.234 140.212 133.234L127.319 139.416ZM152.875 148.291L154.425 151.397L150.959 149.866C151.581 149.322 152.184 148.756 152.875 148.291ZM179.103 164.934C179.103 165.597 178.994 166.228 178.906 166.869L184.881 166.475C184.69 168.967 184.027 171.399 182.928 173.644L177.997 170.397C177.482 171.591 176.806 172.709 175.988 173.719L181.372 176.322C179.932 178.389 178.121 180.171 176.031 181.578L173.381 176.284C172.387 177.041 171.331 177.722 170.159 178.209L173.503 183.012C171.158 184.15 168.618 184.833 166.019 185.028L166.416 179.147C165.769 179.234 165.122 179.341 164.45 179.341C163.828 179.341 163.234 179.238 162.637 179.163L163.094 185.038C160.494 184.872 157.95 184.216 155.594 183.106L158.897 178.253C157.686 177.751 156.549 177.088 155.516 176.281L152.872 181.578C150.782 180.171 148.971 178.389 147.531 176.322L152.916 173.716C152.097 172.705 151.421 171.588 150.906 170.394L145.975 173.641C144.874 171.397 144.212 168.964 144.022 166.472L147.325 166.688L158.647 171.375C160.25 172.788 162.313 173.569 164.45 173.572C169.303 173.572 173.241 169.709 173.241 164.928C173.241 160.6 170.006 157.05 165.787 156.412L157.041 152.547C157.631 152.191 158.25 151.866 158.897 151.603L155.594 146.75C157.884 145.668 160.355 145.017 162.881 144.831L162.484 150.713C163.131 150.628 163.778 150.516 164.45 150.516C165.122 150.516 165.769 150.625 166.416 150.713L166.019 144.831C168.545 145.019 171.015 145.669 173.306 146.75L170.003 151.603C171.181 152.078 172.256 152.731 173.262 153.481L175.85 148.162C178.016 149.588 179.891 151.413 181.375 153.541L175.991 156.144C176.759 157.122 177.45 158.162 177.95 159.319L182.834 156.025C183.962 158.278 184.678 160.756 184.878 163.384L178.906 163C178.991 163.637 179.103 164.269 179.103 164.934Z" fill="#00A082"/>
</svg>
