<svg width="110" height="110" viewBox="0 0 110 110" fill="none" xmlns="http://www.w3.org/2000/svg">
<g clip-path="url(#clip0_240_16)">
<path d="M96.202 109.946H13.7825C9.99061 109.946 6.75322 108.605 4.07029 105.922C1.38736 103.239 0.0458984 100.002 0.0458984 96.2098V13.7903C0.0458984 9.99843 1.38736 6.76103 4.07029 4.0781C6.75322 1.39517 9.99061 0.0537109 13.7825 0.0537109H96.202C99.9939 0.0537109 103.231 1.39517 105.914 4.0781C108.597 6.76103 109.939 9.99843 109.939 13.7903V96.2098C109.939 100.002 108.597 103.239 105.914 105.922C103.231 108.605 99.9939 109.946 96.202 109.946ZM103.07 27.5269C103.07 25.6667 102.391 24.057 101.031 22.6976C99.6719 21.3383 98.0622 20.6586 96.202 20.6586H13.7825C11.9223 20.6586 10.3126 21.3383 8.95321 22.6976C7.59387 24.057 6.91419 25.6667 6.91419 27.5269V96.2098C6.91419 98.1415 7.59387 99.7691 8.95321 101.093C10.3126 102.416 11.9223 103.078 13.7825 103.078H96.202C98.0622 103.078 99.6719 102.416 101.031 101.093C102.391 99.7691 103.07 98.1415 103.07 96.2098V27.5269ZM92.7678 96.2098H37.8215C36.8914 96.2098 36.0865 95.87 35.4069 95.1903C34.7272 94.5106 34.3874 93.7057 34.3874 92.7757C34.3874 91.8456 34.7272 91.0407 35.4069 90.361C36.0865 89.6814 36.8914 89.3415 37.8215 89.3415H92.7678C93.6979 89.3415 94.5028 89.6814 95.1825 90.361C95.8622 91.0407 96.202 91.8456 96.202 92.7757C96.202 93.7057 95.8622 94.5106 95.1825 95.1903C94.5028 95.87 93.6979 96.2098 92.7678 96.2098ZM92.7678 68.7366H37.8215C36.8914 68.7366 36.0865 68.3968 35.4069 67.7171C34.7272 67.0374 34.3874 66.2326 34.3874 65.3025C34.3874 64.3724 34.7272 63.5675 35.4069 62.8879C36.0865 62.2082 36.8914 61.8683 37.8215 61.8683H92.7678C93.6979 61.8683 94.5028 62.2082 95.1825 62.8879C95.8622 63.5675 96.202 64.3724 96.202 65.3025C96.202 66.2326 95.8622 67.0374 95.1825 67.7171C94.5028 68.3968 93.6979 68.7366 92.7678 68.7366ZM92.7678 41.2635H37.8215C36.8914 41.2635 36.0865 40.9236 35.4069 40.244C34.7272 39.5643 34.3874 38.7594 34.3874 37.8293C34.3874 36.8992 34.7272 36.0944 35.4069 35.4147C36.0865 34.735 36.8914 34.3952 37.8215 34.3952H92.7678C93.6979 34.3952 94.5028 34.735 95.1825 35.4147C95.8622 36.0944 96.202 36.8992 96.202 37.8293C96.202 38.7594 95.8622 39.5643 95.1825 40.244C94.5028 40.9236 93.6979 41.2635 92.7678 41.2635ZM24.0849 96.2098H17.2166C16.2865 96.2098 15.4817 95.87 14.802 95.1903C14.1223 94.5106 13.7825 93.7057 13.7825 92.7757V85.9074C13.7825 84.9773 14.1223 84.1724 14.802 83.4927C15.4817 82.8131 16.2865 82.4732 17.2166 82.4732H24.0849C25.015 82.4732 25.8199 82.8131 26.4996 83.4927C27.1792 84.1724 27.5191 84.9773 27.5191 85.9074V92.7757C27.5191 93.7057 27.1792 94.5106 26.4996 95.1903C25.8199 95.87 25.015 96.2098 24.0849 96.2098ZM24.0849 68.7366H17.2166C16.2865 68.7366 15.4817 68.3968 14.802 67.7171C14.1223 67.0374 13.7825 66.2326 13.7825 65.3025V58.4342C13.7825 57.5041 14.1223 56.6992 14.802 56.0196C15.4817 55.3399 16.2865 55 17.2166 55H24.0849C25.015 55 25.8199 55.3399 26.4996 56.0196C27.1792 56.6992 27.5191 57.5041 27.5191 58.4342V65.3025C27.5191 66.2326 27.1792 67.0374 26.4996 67.7171C25.8199 68.3968 25.015 68.7366 24.0849 68.7366ZM24.0849 41.2635H17.2166C16.2865 41.2635 15.4817 40.9236 14.802 40.244C14.1223 39.5643 13.7825 38.7594 13.7825 37.8293V30.961C13.7825 30.0309 14.1223 29.2261 14.802 28.5464C15.4817 27.8667 16.2865 27.5269 17.2166 27.5269H24.0849C25.015 27.5269 25.8199 27.8667 26.4996 28.5464C27.1792 29.2261 27.5191 30.0309 27.5191 30.961V37.8293C27.5191 38.7594 27.1792 39.5643 26.4996 40.244C25.8199 40.9236 25.015 41.2635 24.0849 41.2635Z" fill="#F2F2F2"/>
</g>
<defs>
<clipPath id="clip0_240_16">
<rect width="110" height="110" fill="white"/>
</clipPath>
</defs>
</svg>
