<svg width="990" height="971" viewBox="0 0 990 971" fill="none" xmlns="http://www.w3.org/2000/svg">
<path d="M618.75 161.833C706.271 161.833 790.208 195.934 852.095 256.633C913.982 317.333 948.75 399.658 948.75 485.5C948.75 571.342 913.982 653.668 852.095 714.367C790.208 775.066 706.271 809.167 618.75 809.167C531.229 809.167 447.292 775.066 385.405 714.367C323.518 653.668 288.75 571.342 288.75 485.5C288.75 399.658 323.518 317.333 385.405 256.633C447.292 195.934 531.229 161.833 618.75 161.833ZM618.75 242.75C553.109 242.75 490.156 268.326 443.741 313.85C397.326 359.374 371.25 421.119 371.25 485.5C371.25 549.881 397.326 611.626 443.741 657.15C490.156 702.675 553.109 728.25 618.75 728.25C684.391 728.25 747.344 702.675 793.759 657.15C840.174 611.626 866.25 549.881 866.25 485.5C866.25 421.119 840.174 359.374 793.759 313.85C747.344 268.326 684.391 242.75 618.75 242.75ZM577.5 323.667H639.375V476.599L735.487 570.867L691.763 613.753L577.5 501.683V323.667ZM82.5 728.25C71.5598 728.25 61.0677 723.988 53.3318 716.4C45.596 708.813 41.25 698.522 41.25 687.792C41.25 677.062 45.596 666.771 53.3318 659.183C61.0677 651.596 71.5598 647.333 82.5 647.333H240.488C253.275 676.059 269.775 703.166 288.75 728.25H82.5ZM123.75 525.958C112.81 525.958 102.318 521.696 94.5818 514.109C86.846 506.521 82.5 496.23 82.5 485.5C82.5 474.77 86.846 464.479 94.5818 456.892C102.318 449.304 112.81 445.042 123.75 445.042H208.313L206.25 485.5L208.313 525.958H123.75ZM165 323.667C154.06 323.667 143.568 319.404 135.832 311.817C128.096 304.229 123.75 293.939 123.75 283.208C123.75 272.478 128.096 262.188 135.832 254.6C143.568 247.013 154.06 242.75 165 242.75H288.75C269.775 267.834 253.275 294.941 240.488 323.667H165Z" fill="#00A082"/>
</svg>
