<svg width="110" height="110" viewBox="0 0 110 110" fill="none" xmlns="http://www.w3.org/2000/svg">
<path d="M41.25 27.5002H68.75C68.75 23.8534 67.3013 20.3561 64.7227 17.7774C62.1441 15.1988 58.6467 13.7502 55 13.7502C51.3533 13.7502 47.8559 15.1988 45.2773 17.7774C42.6987 20.3561 41.25 23.8534 41.25 27.5002ZM32.0833 27.5002C32.0833 21.4223 34.4978 15.5933 38.7955 11.2956C43.0932 6.99792 48.9221 4.5835 55 4.5835C61.0779 4.5835 66.9068 6.99792 71.2045 11.2956C75.5022 15.5933 77.9167 21.4223 77.9167 27.5002H91.6667C92.8822 27.5002 94.048 27.983 94.9076 28.8426C95.7671 29.7021 96.25 30.8679 96.25 32.0835V96.2502C96.25 97.4657 95.7671 98.6315 94.9076 99.4911C94.048 100.351 92.8822 100.833 91.6667 100.833H18.3333C17.1178 100.833 15.952 100.351 15.0924 99.4911C14.2329 98.6315 13.75 97.4657 13.75 96.2502V32.0835C13.75 30.8679 14.2329 29.7021 15.0924 28.8426C15.952 27.983 17.1178 27.5002 18.3333 27.5002H32.0833ZM22.9167 36.6668V91.6668H87.0833V36.6668H22.9167ZM41.25 45.8335C41.25 49.4802 42.6987 52.9776 45.2773 55.5562C47.8559 58.1348 51.3533 59.5835 55 59.5835C58.6467 59.5835 62.1441 58.1348 64.7227 55.5562C67.3013 52.9776 68.75 49.4802 68.75 45.8335H77.9167C77.9167 51.9114 75.5022 57.7403 71.2045 62.038C66.9068 66.3357 61.0779 68.7502 55 68.7502C48.9221 68.7502 43.0932 66.3357 38.7955 62.038C34.4978 57.7403 32.0833 51.9114 32.0833 45.8335H41.25Z" fill="#F2F2F2"/>
</svg>
