<svg width="110" height="110" viewBox="0 0 110 110" fill="none" xmlns="http://www.w3.org/2000/svg">
<path d="M55.0235 55.0452C65.9803 55.0452 74.9119 45.2866 74.9119 33.4086C74.9119 21.6229 66.0726 12.3691 55.0235 12.3691C44.1119 12.3691 35.1352 21.8075 35.1352 33.5009C35.1803 45.3318 44.1119 55.0452 55.0235 55.0452ZM55.0235 48.0936C48.3018 48.0936 42.5464 41.6507 42.5464 33.499C42.5464 25.4906 48.2094 19.3207 55.0235 19.3207C61.928 19.3207 67.4987 25.3982 67.4987 33.4086C67.4987 41.5565 61.8357 48.0936 55.0235 48.0936ZM26.1112 97.6329H83.9359C91.5769 97.6329 95.2148 95.3288 95.2148 90.2668C95.2148 78.2022 80.021 60.7554 55.0235 60.7554C30.0241 60.7554 14.7852 78.2041 14.7852 90.2649C14.7852 95.3288 18.423 97.6329 26.1112 97.6329ZM23.9014 90.6774C22.7032 90.6774 22.1984 90.3552 22.1984 89.3888C22.1984 81.8381 33.8918 67.7031 55.0216 67.7031C76.1553 67.7031 87.8016 81.8381 87.8016 89.3888C87.8016 90.3552 87.3419 90.6774 86.1457 90.6774H23.9014Z" fill="#F2F2F2"/>
</svg>
